<?xml version="1.0" encoding="UTF-8"?>
<svg version="1.1" xmlns="http://www.w3.org/2000/svg" width="512" height="512">
<path d="M0 0 C1.28617218 -0.0129007 1.28617218 -0.0129007 2.59832764 -0.02606201 C3.53128662 -0.03032196 4.46424561 -0.03458191 5.42547607 -0.03897095 C6.41473083 -0.04714844 7.4039856 -0.05532593 8.42321777 -0.06375122 C11.70098271 -0.08858085 14.97870414 -0.10512258 18.25653076 -0.11953735 C19.94215244 -0.12752287 19.94215244 -0.12752287 21.66182709 -0.13566971 C27.6194948 -0.16240136 33.57714165 -0.18176905 39.53485107 -0.19619751 C44.44259477 -0.20948884 49.34991797 -0.23725296 54.25750732 -0.27822876 C60.20146349 -0.32785069 66.14504084 -0.35235577 72.08919525 -0.35942459 C74.34237554 -0.36609232 76.59554888 -0.38119565 78.84860992 -0.4053154 C101.03530911 -0.62911983 117.71029764 3.12567528 134.39715576 18.7828064 C145.91748304 30.7568452 151.98510135 45.93262419 151.96893311 62.40267944 C151.97565033 63.39733719 151.98236755 64.39199493 151.98928833 65.41679382 C152.00820039 68.68728713 152.01218936 71.95757439 152.01434326 75.2281189 C152.02077675 77.51724835 152.02750552 79.806377 152.03451538 82.09550476 C152.04647181 86.88932194 152.05019797 91.68306716 152.04901123 96.47689819 C152.04880834 102.59177131 152.07608768 108.70617815 152.11055565 114.82094097 C152.13289701 119.54900696 152.13684652 124.27696211 152.13579178 129.00507545 C152.13813772 131.25791846 152.14690385 133.51076499 152.16245651 135.76355553 C152.30338618 158.28879572 152.30338618 158.28879572 147.67840576 169.15390015 C147.1718042 170.37206421 146.66520264 171.59022827 146.14324951 172.8453064 C137.5973548 188.90983993 124.9289091 199.94650878 107.67840576 206.15390015 C101.23764566 207.95576593 95.14879769 208.44685278 88.48382568 208.42855835 C87.0184713 208.43622475 87.0184713 208.43622475 85.52351379 208.44404602 C82.31857037 208.45785894 79.11384403 208.45699133 75.90887451 208.4546814 C73.6636192 208.4585732 71.41836461 208.46290887 69.17311096 208.46766663 C64.47522593 208.47511126 59.77741608 208.47485053 55.07952881 208.46957397 C49.08460515 208.46378531 43.08999105 208.48070461 37.09511852 208.50391865 C32.45974453 208.51871246 27.8244441 208.51951995 23.18905067 208.51640892 C20.98004863 208.51691941 18.77104216 208.52210553 16.56206322 208.53222084 C-4.70572883 208.61765807 -22.26005631 205.68097444 -38.23980713 190.49691772 C-48.04448999 180.64185972 -56.38677127 166.13229954 -56.46876526 151.81211853 C-56.47592056 150.95033493 -56.48307587 150.08855133 -56.490448 149.20065308 C-56.4931369 148.26298096 -56.49582581 147.32530884 -56.49859619 146.35922241 C-56.50516739 145.36514877 -56.51173859 144.37107513 -56.51850891 143.34687805 C-56.53822776 140.05468669 -56.54990459 136.76254104 -56.55987549 133.4703064 C-56.56395102 132.34281416 -56.56802654 131.21532192 -56.57222557 130.05366325 C-56.59308539 124.07999734 -56.60738463 118.10635436 -56.61676025 112.13265991 C-56.62779354 105.98631138 -56.66215839 99.84032798 -56.70193195 93.69410801 C-56.72818757 88.94889187 -56.73646028 84.20376131 -56.74004173 79.45847893 C-56.74488859 77.19446295 -56.75644774 74.93045031 -56.77507973 72.66650581 C-56.95058261 49.91806595 -56.95058261 49.91806595 -52.32159424 39.15390015 C-51.93316849 38.23770401 -51.54474274 37.32150787 -51.14454651 36.37754822 C-44.36757025 21.14826571 -31.54674739 10.12980774 -16.31768799 3.9312439 C-10.88616758 1.91340875 -5.83487714 0.04379163 0 0 Z " fill="#000000" transform="translate(328.32159423828125,271.8460998535156)"/>
<path d="M0 0 C1.28617218 -0.0129007 1.28617218 -0.0129007 2.59832764 -0.02606201 C3.53128662 -0.03032196 4.46424561 -0.03458191 5.42547607 -0.03897095 C6.41473083 -0.04714844 7.4039856 -0.05532593 8.42321777 -0.06375122 C11.70098271 -0.08858085 14.97870414 -0.10512258 18.25653076 -0.11953735 C19.94215244 -0.12752287 19.94215244 -0.12752287 21.66182709 -0.13566971 C27.6194948 -0.16240136 33.57714165 -0.18176905 39.53485107 -0.19619751 C44.44259477 -0.20948884 49.34991797 -0.23725296 54.25750732 -0.27822876 C60.20146349 -0.32785069 66.14504084 -0.35235577 72.08919525 -0.35942459 C74.34237554 -0.36609232 76.59554888 -0.38119565 78.84860992 -0.4053154 C101.03530911 -0.62911983 117.71029764 3.12567528 134.39715576 18.7828064 C145.91748304 30.7568452 151.98510135 45.93262419 151.96893311 62.40267944 C151.97565033 63.39733719 151.98236755 64.39199493 151.98928833 65.41679382 C152.00820039 68.68728713 152.01218936 71.95757439 152.01434326 75.2281189 C152.02077675 77.51724835 152.02750552 79.806377 152.03451538 82.09550476 C152.04647181 86.88932194 152.05019797 91.68306716 152.04901123 96.47689819 C152.04880834 102.59177131 152.07608768 108.70617815 152.11055565 114.82094097 C152.13289701 119.54900696 152.13684652 124.27696211 152.13579178 129.00507545 C152.13813772 131.25791846 152.14690385 133.51076499 152.16245651 135.76355553 C152.30338618 158.28879572 152.30338618 158.28879572 147.67840576 169.15390015 C147.1718042 170.37206421 146.66520264 171.59022827 146.14324951 172.8453064 C137.5973548 188.90983993 124.9289091 199.94650878 107.67840576 206.15390015 C101.23764566 207.95576593 95.14879769 208.44685278 88.48382568 208.42855835 C87.0184713 208.43622475 87.0184713 208.43622475 85.52351379 208.44404602 C82.31857037 208.45785894 79.11384403 208.45699133 75.90887451 208.4546814 C73.6636192 208.4585732 71.41836461 208.46290887 69.17311096 208.46766663 C64.47522593 208.47511126 59.77741608 208.47485053 55.07952881 208.46957397 C49.08460515 208.46378531 43.08999105 208.48070461 37.09511852 208.50391865 C32.45974453 208.51871246 27.8244441 208.51951995 23.18905067 208.51640892 C20.98004863 208.51691941 18.77104216 208.52210553 16.56206322 208.53222084 C-4.70572883 208.61765807 -22.26005631 205.68097444 -38.23980713 190.49691772 C-48.04448999 180.64185972 -56.38677127 166.13229954 -56.46876526 151.81211853 C-56.47592056 150.95033493 -56.48307587 150.08855133 -56.490448 149.20065308 C-56.4931369 148.26298096 -56.49582581 147.32530884 -56.49859619 146.35922241 C-56.50516739 145.36514877 -56.51173859 144.37107513 -56.51850891 143.34687805 C-56.53822776 140.05468669 -56.54990459 136.76254104 -56.55987549 133.4703064 C-56.56395102 132.34281416 -56.56802654 131.21532192 -56.57222557 130.05366325 C-56.59308539 124.07999734 -56.60738463 118.10635436 -56.61676025 112.13265991 C-56.62779354 105.98631138 -56.66215839 99.84032798 -56.70193195 93.69410801 C-56.72818757 88.94889187 -56.73646028 84.20376131 -56.74004173 79.45847893 C-56.74488859 77.19446295 -56.75644774 74.93045031 -56.77507973 72.66650581 C-56.95058261 49.91806595 -56.95058261 49.91806595 -52.32159424 39.15390015 C-51.93316849 38.23770401 -51.54474274 37.32150787 -51.14454651 36.37754822 C-44.36757025 21.14826571 -31.54674739 10.12980774 -16.31768799 3.9312439 C-10.88616758 1.91340875 -5.83487714 0.04379163 0 0 Z " fill="#000000" transform="translate(88.32159423828125,271.8460998535156)"/>
<path d="M0 0 C1.28617218 -0.0129007 1.28617218 -0.0129007 2.59832764 -0.02606201 C3.53128662 -0.03032196 4.46424561 -0.03458191 5.42547607 -0.03897095 C6.41473083 -0.04714844 7.4039856 -0.05532593 8.42321777 -0.06375122 C11.70098271 -0.08858085 14.97870414 -0.10512258 18.25653076 -0.11953735 C19.94215244 -0.12752287 19.94215244 -0.12752287 21.66182709 -0.13566971 C27.6194948 -0.16240136 33.57714165 -0.18176905 39.53485107 -0.19619751 C44.44259477 -0.20948884 49.34991797 -0.23725296 54.25750732 -0.27822876 C60.20146349 -0.32785069 66.14504084 -0.35235577 72.08919525 -0.35942459 C74.34237554 -0.36609232 76.59554888 -0.38119565 78.84860992 -0.4053154 C101.03530911 -0.62911983 117.71029764 3.12567528 134.39715576 18.7828064 C145.91748304 30.7568452 151.98510135 45.93262419 151.96893311 62.40267944 C151.97565033 63.39733719 151.98236755 64.39199493 151.98928833 65.41679382 C152.00820039 68.68728713 152.01218936 71.95757439 152.01434326 75.2281189 C152.02077675 77.51724835 152.02750552 79.806377 152.03451538 82.09550476 C152.04647181 86.88932194 152.05019797 91.68306716 152.04901123 96.47689819 C152.04880834 102.59177131 152.07608768 108.70617815 152.11055565 114.82094097 C152.13289701 119.54900696 152.13684652 124.27696211 152.13579178 129.00507545 C152.13813772 131.25791846 152.14690385 133.51076499 152.16245651 135.76355553 C152.30338618 158.28879572 152.30338618 158.28879572 147.67840576 169.15390015 C147.1718042 170.37206421 146.66520264 171.59022827 146.14324951 172.8453064 C137.5973548 188.90983993 124.9289091 199.94650878 107.67840576 206.15390015 C101.23764566 207.95576593 95.14879769 208.44685278 88.48382568 208.42855835 C87.0184713 208.43622475 87.0184713 208.43622475 85.52351379 208.44404602 C82.31857037 208.45785894 79.11384403 208.45699133 75.90887451 208.4546814 C73.6636192 208.4585732 71.41836461 208.46290887 69.17311096 208.46766663 C64.47522593 208.47511126 59.77741608 208.47485053 55.07952881 208.46957397 C49.08460515 208.46378531 43.08999105 208.48070461 37.09511852 208.50391865 C32.45974453 208.51871246 27.8244441 208.51951995 23.18905067 208.51640892 C20.98004863 208.51691941 18.77104216 208.52210553 16.56206322 208.53222084 C-4.70572883 208.61765807 -22.26005631 205.68097444 -38.23980713 190.49691772 C-48.04448999 180.64185972 -56.38677127 166.13229954 -56.46876526 151.81211853 C-56.47592056 150.95033493 -56.48307587 150.08855133 -56.490448 149.20065308 C-56.4931369 148.26298096 -56.49582581 147.32530884 -56.49859619 146.35922241 C-56.50516739 145.36514877 -56.51173859 144.37107513 -56.51850891 143.34687805 C-56.53822776 140.05468669 -56.54990459 136.76254104 -56.55987549 133.4703064 C-56.56395102 132.34281416 -56.56802654 131.21532192 -56.57222557 130.05366325 C-56.59308539 124.07999734 -56.60738463 118.10635436 -56.61676025 112.13265991 C-56.62779354 105.98631138 -56.66215839 99.84032798 -56.70193195 93.69410801 C-56.72818757 88.94889187 -56.73646028 84.20376131 -56.74004173 79.45847893 C-56.74488859 77.19446295 -56.75644774 74.93045031 -56.77507973 72.66650581 C-56.95058261 49.91806595 -56.95058261 49.91806595 -52.32159424 39.15390015 C-51.93316849 38.23770401 -51.54474274 37.32150787 -51.14454651 36.37754822 C-44.36757025 21.14826571 -31.54674739 10.12980774 -16.31768799 3.9312439 C-10.88616758 1.91340875 -5.83487714 0.04379163 0 0 Z " fill="#000000" transform="translate(328.32159423828125,31.846099853515625)"/>
<path d="M0 0 C1.28617218 -0.0129007 1.28617218 -0.0129007 2.59832764 -0.02606201 C3.53128662 -0.03032196 4.46424561 -0.03458191 5.42547607 -0.03897095 C6.41473083 -0.04714844 7.4039856 -0.05532593 8.42321777 -0.06375122 C11.70098271 -0.08858085 14.97870414 -0.10512258 18.25653076 -0.11953735 C19.94215244 -0.12752287 19.94215244 -0.12752287 21.66182709 -0.13566971 C27.6194948 -0.16240136 33.57714165 -0.18176905 39.53485107 -0.19619751 C44.44259477 -0.20948884 49.34991797 -0.23725296 54.25750732 -0.27822876 C60.20146349 -0.32785069 66.14504084 -0.35235577 72.08919525 -0.35942459 C74.34237554 -0.36609232 76.59554888 -0.38119565 78.84860992 -0.4053154 C101.03530911 -0.62911983 117.71029764 3.12567528 134.39715576 18.7828064 C145.91748304 30.7568452 151.98510135 45.93262419 151.96893311 62.40267944 C151.97565033 63.39733719 151.98236755 64.39199493 151.98928833 65.41679382 C152.00820039 68.68728713 152.01218936 71.95757439 152.01434326 75.2281189 C152.02077675 77.51724835 152.02750552 79.806377 152.03451538 82.09550476 C152.04647181 86.88932194 152.05019797 91.68306716 152.04901123 96.47689819 C152.04880834 102.59177131 152.07608768 108.70617815 152.11055565 114.82094097 C152.13289701 119.54900696 152.13684652 124.27696211 152.13579178 129.00507545 C152.13813772 131.25791846 152.14690385 133.51076499 152.16245651 135.76355553 C152.30338618 158.28879572 152.30338618 158.28879572 147.67840576 169.15390015 C147.1718042 170.37206421 146.66520264 171.59022827 146.14324951 172.8453064 C137.5973548 188.90983993 124.9289091 199.94650878 107.67840576 206.15390015 C101.23764566 207.95576593 95.14879769 208.44685278 88.48382568 208.42855835 C87.0184713 208.43622475 87.0184713 208.43622475 85.52351379 208.44404602 C82.31857037 208.45785894 79.11384403 208.45699133 75.90887451 208.4546814 C73.6636192 208.4585732 71.41836461 208.46290887 69.17311096 208.46766663 C64.47522593 208.47511126 59.77741608 208.47485053 55.07952881 208.46957397 C49.08460515 208.46378531 43.08999105 208.48070461 37.09511852 208.50391865 C32.45974453 208.51871246 27.8244441 208.51951995 23.18905067 208.51640892 C20.98004863 208.51691941 18.77104216 208.52210553 16.56206322 208.53222084 C-4.70572883 208.61765807 -22.26005631 205.68097444 -38.23980713 190.49691772 C-48.04448999 180.64185972 -56.38677127 166.13229954 -56.46876526 151.81211853 C-56.47592056 150.95033493 -56.48307587 150.08855133 -56.490448 149.20065308 C-56.4931369 148.26298096 -56.49582581 147.32530884 -56.49859619 146.35922241 C-56.50516739 145.36514877 -56.51173859 144.37107513 -56.51850891 143.34687805 C-56.53822776 140.05468669 -56.54990459 136.76254104 -56.55987549 133.4703064 C-56.56395102 132.34281416 -56.56802654 131.21532192 -56.57222557 130.05366325 C-56.59308539 124.07999734 -56.60738463 118.10635436 -56.61676025 112.13265991 C-56.62779354 105.98631138 -56.66215839 99.84032798 -56.70193195 93.69410801 C-56.72818757 88.94889187 -56.73646028 84.20376131 -56.74004173 79.45847893 C-56.74488859 77.19446295 -56.75644774 74.93045031 -56.77507973 72.66650581 C-56.95058261 49.91806595 -56.95058261 49.91806595 -52.32159424 39.15390015 C-51.93316849 38.23770401 -51.54474274 37.32150787 -51.14454651 36.37754822 C-44.36757025 21.14826571 -31.54674739 10.12980774 -16.31768799 3.9312439 C-10.88616758 1.91340875 -5.83487714 0.04379163 0 0 Z " fill="#000000" transform="translate(88.32159423828125,31.846099853515625)"/>
<path d="M0 0 C1.33302406 -0.01248528 1.33302406 -0.01248528 2.69297791 -0.02522278 C5.62202381 -0.0492553 8.55084651 -0.05808818 11.47998047 -0.06469727 C13.52774112 -0.07367115 15.57550113 -0.08279313 17.6232605 -0.09205627 C21.9153604 -0.10853224 26.20738246 -0.11624343 30.49951172 -0.11914062 C35.97345204 -0.1245123 41.4466502 -0.1621485 46.92038155 -0.20788479 C51.15172935 -0.2377763 55.38290139 -0.24486686 59.61434555 -0.24586678 C61.63079082 -0.25004775 63.64723766 -0.26239578 65.66357803 -0.28338432 C78.9655122 -0.41078771 91.25977339 -0.08795471 101.51123047 9.63842773 C108.03961131 17.09195346 110.27074338 24.57725835 110.27856445 34.33422852 C110.28688797 35.22291122 110.29521149 36.11159393 110.30378723 37.02720642 C110.32781975 39.95625232 110.33665263 42.88507503 110.34326172 45.81420898 C110.3522356 47.86196964 110.36135758 49.90972965 110.37062073 51.95748901 C110.38709669 56.24958892 110.39480788 60.54161097 110.39770508 64.83374023 C110.40307675 70.30768056 110.44071295 75.78087871 110.48644924 81.25461006 C110.51634075 85.48595787 110.52343131 89.7171299 110.52443123 93.94857407 C110.52861221 95.96501934 110.54096023 97.98146618 110.56194878 99.99780655 C110.68709531 113.064107 110.42301994 125.62263312 100.91748047 135.77514648 C93.17235893 141.87170801 84.89936864 144.45264129 75.23730469 144.48339844 C73.89770943 144.49325523 73.89770943 144.49325523 72.53105164 144.50331116 C69.57131872 144.52304303 66.61163661 144.53470828 63.65185547 144.54467773 C62.13378988 144.55079103 62.13378988 144.55079103 60.5850563 144.55702782 C55.22548883 144.5778909 49.86594696 144.59219001 44.50634766 144.6015625 C38.98171491 144.61261035 33.45748677 144.64699099 27.93299675 144.6867342 C23.67604852 144.71293799 19.419196 144.72125783 15.16217422 144.72484398 C13.12650962 144.72970241 11.09084907 144.74129508 9.05526352 144.75988197 C6.19765392 144.78434691 3.34108167 144.78329461 0.48339844 144.77636719 C-0.76542366 144.79558228 -0.76542366 144.79558228 -2.03947449 144.81518555 C-11.15163313 144.73514894 -19.55880571 140.70732779 -26.02783203 134.30639648 C-31.90090268 126.31068611 -34.32903513 119.05318362 -34.31835938 109.23095703 C-34.3250766 108.33745544 -34.33179382 107.44395386 -34.3387146 106.52337646 C-34.35765742 103.57989893 -34.36161698 100.63664988 -34.36376953 97.69311523 C-34.37020023 95.6381674 -34.3769288 93.58322047 -34.38394165 91.52827454 C-34.39590527 87.22358071 -34.39962343 82.91896708 -34.3984375 78.61425781 C-34.39823441 73.11322157 -34.42553044 67.61270253 -34.45998192 62.11178875 C-34.48228027 57.86769779 -34.48627413 53.6237307 -34.48521805 49.37958717 C-34.48756981 47.35230541 -34.49636928 45.32502002 -34.51188278 43.29779625 C-34.53160125 40.45484148 -34.52568166 37.61299426 -34.51367188 34.77001953 C-34.52491089 33.9421846 -34.5361499 33.11434967 -34.54772949 32.26142883 C-34.44957214 23.06209348 -30.33902744 14.92409587 -24.02783203 8.30639648 C-16.45307232 2.17315298 -9.62725087 0.00771709 0 0 Z " fill="#FEEDAC" transform="translate(98.02783203125,63.693603515625)"/>
<path d="M0 0 C0.87238815 -0.00511093 1.74477631 -0.01022186 2.64360046 -0.01548767 C5.51735364 -0.02934621 8.39086588 -0.02842925 11.26464844 -0.02612305 C13.27236011 -0.03001293 15.28007096 -0.0343482 17.28778076 -0.03910828 C21.49412707 -0.04656313 25.70038944 -0.04628518 29.90673828 -0.04101562 C35.27756081 -0.03523171 40.64803727 -0.05212959 46.01880264 -0.0753603 C50.16599512 -0.09014867 54.31310534 -0.09096224 58.46031952 -0.08785057 C60.43931512 -0.08836154 62.4183156 -0.09355681 64.39728546 -0.10366249 C90.41999308 -0.22021317 90.41999308 -0.22021317 101.12402344 9.2746582 C107.84478396 17.1625737 110.42221181 24.06268276 110.43041992 34.30249023 C110.43874344 35.19117294 110.44706696 36.07985565 110.4556427 36.99546814 C110.47967522 39.92451404 110.4885081 42.85333674 110.49511719 45.7824707 C110.50409107 47.83023136 110.51321305 49.87799137 110.5224762 51.92575073 C110.53895216 56.21785064 110.54666335 60.50987269 110.54956055 64.80200195 C110.55493222 70.27594228 110.59256842 75.74914043 110.63830471 81.22287178 C110.66819622 85.45421959 110.67528678 89.68539162 110.6762867 93.91683578 C110.68046767 95.93328106 110.6928157 97.94972789 110.71380424 99.96606827 C110.83895078 113.03236872 110.57487541 125.59089484 101.06933594 135.7434082 C93.3242144 141.83996973 85.05122411 144.42090301 75.38916016 144.45166016 C74.0495649 144.46151695 74.0495649 144.46151695 72.6829071 144.47157288 C69.72317419 144.49130475 66.76349208 144.50297 63.80371094 144.51293945 C62.28564535 144.51905274 62.28564535 144.51905274 60.73691177 144.52528954 C55.3773443 144.54615262 50.01780243 144.56045172 44.65820312 144.56982422 C39.13357038 144.58087207 33.60934224 144.61525271 28.08485222 144.65499592 C23.82790399 144.68119971 19.57105147 144.68951955 15.31402969 144.6931057 C13.27836509 144.69796412 11.24270454 144.7095568 9.20711899 144.72814369 C6.34950939 144.75260863 3.49293714 144.75155633 0.63525391 144.74462891 C-0.61356819 144.76384399 -0.61356819 144.76384399 -1.88761902 144.78344727 C-10.99977766 144.70341066 -19.40695024 140.67558951 -25.87597656 134.2746582 C-31.74904721 126.27894783 -34.17717966 119.02144534 -34.16650391 109.19921875 C-34.17322113 108.30571716 -34.17993835 107.41221558 -34.18685913 106.49163818 C-34.20580195 103.54816064 -34.20976151 100.6049116 -34.21191406 97.66137695 C-34.21834477 95.60642911 -34.22507333 93.55148219 -34.23208618 91.49653625 C-34.2440498 87.19184243 -34.24776796 82.8872288 -34.24658203 78.58251953 C-34.24637894 73.08148329 -34.27367497 67.58096424 -34.30812645 62.08005047 C-34.3304248 57.83595951 -34.33441866 53.59199242 -34.33336258 49.34784889 C-34.33571434 47.32056713 -34.34451381 45.29328174 -34.36002731 43.26605797 C-34.37974578 40.4231032 -34.37382619 37.58125598 -34.36181641 34.73828125 C-34.37305542 33.91044632 -34.38429443 33.08261139 -34.39587402 32.22969055 C-34.29771667 23.03035519 -30.18717197 14.89235758 -23.87597656 8.2746582 C-16.35326234 2.18355566 -9.56857082 -0.0291351 0 0 Z " fill="#FEAC5F" transform="translate(337.8759765625,303.725341796875)"/>
<path d="M0 0 C0.87238815 -0.00511093 1.74477631 -0.01022186 2.64360046 -0.01548767 C5.51735364 -0.02934621 8.39086588 -0.02842925 11.26464844 -0.02612305 C13.27236011 -0.03001293 15.28007096 -0.0343482 17.28778076 -0.03910828 C21.49412707 -0.04656313 25.70038944 -0.04628518 29.90673828 -0.04101562 C35.27756081 -0.03523171 40.64803727 -0.05212959 46.01880264 -0.0753603 C50.16599512 -0.09014867 54.31310534 -0.09096224 58.46031952 -0.08785057 C60.43931512 -0.08836154 62.4183156 -0.09355681 64.39728546 -0.10366249 C90.41999308 -0.22021317 90.41999308 -0.22021317 101.12402344 9.2746582 C107.84478396 17.1625737 110.42221181 24.06268276 110.43041992 34.30249023 C110.43874344 35.19117294 110.44706696 36.07985565 110.4556427 36.99546814 C110.47967522 39.92451404 110.4885081 42.85333674 110.49511719 45.7824707 C110.50409107 47.83023136 110.51321305 49.87799137 110.5224762 51.92575073 C110.53895216 56.21785064 110.54666335 60.50987269 110.54956055 64.80200195 C110.55493222 70.27594228 110.59256842 75.74914043 110.63830471 81.22287178 C110.66819622 85.45421959 110.67528678 89.68539162 110.6762867 93.91683578 C110.68046767 95.93328106 110.6928157 97.94972789 110.71380424 99.96606827 C110.83895078 113.03236872 110.57487541 125.59089484 101.06933594 135.7434082 C93.3242144 141.83996973 85.05122411 144.42090301 75.38916016 144.45166016 C74.0495649 144.46151695 74.0495649 144.46151695 72.6829071 144.47157288 C69.72317419 144.49130475 66.76349208 144.50297 63.80371094 144.51293945 C62.28564535 144.51905274 62.28564535 144.51905274 60.73691177 144.52528954 C55.3773443 144.54615262 50.01780243 144.56045172 44.65820312 144.56982422 C39.13357038 144.58087207 33.60934224 144.61525271 28.08485222 144.65499592 C23.82790399 144.68119971 19.57105147 144.68951955 15.31402969 144.6931057 C13.27836509 144.69796412 11.24270454 144.7095568 9.20711899 144.72814369 C6.34950939 144.75260863 3.49293714 144.75155633 0.63525391 144.74462891 C-0.61356819 144.76384399 -0.61356819 144.76384399 -1.88761902 144.78344727 C-10.99977766 144.70341066 -19.40695024 140.67558951 -25.87597656 134.2746582 C-31.74904721 126.27894783 -34.17717966 119.02144534 -34.16650391 109.19921875 C-34.17322113 108.30571716 -34.17993835 107.41221558 -34.18685913 106.49163818 C-34.20580195 103.54816064 -34.20976151 100.6049116 -34.21191406 97.66137695 C-34.21834477 95.60642911 -34.22507333 93.55148219 -34.23208618 91.49653625 C-34.2440498 87.19184243 -34.24776796 82.8872288 -34.24658203 78.58251953 C-34.24637894 73.08148329 -34.27367497 67.58096424 -34.30812645 62.08005047 C-34.3304248 57.83595951 -34.33441866 53.59199242 -34.33336258 49.34784889 C-34.33571434 47.32056713 -34.34451381 45.29328174 -34.36002731 43.26605797 C-34.37974578 40.4231032 -34.37382619 37.58125598 -34.36181641 34.73828125 C-34.37305542 33.91044632 -34.38429443 33.08261139 -34.39587402 32.22969055 C-34.29771667 23.03035519 -30.18717197 14.89235758 -23.87597656 8.2746582 C-16.35326234 2.18355566 -9.56857082 -0.0291351 0 0 Z " fill="#95CDB3" transform="translate(97.8759765625,303.725341796875)"/>
<path d="M0 0 C0.87238815 -0.00511093 1.74477631 -0.01022186 2.64360046 -0.01548767 C5.51735364 -0.02934621 8.39086588 -0.02842925 11.26464844 -0.02612305 C13.27236011 -0.03001293 15.28007096 -0.0343482 17.28778076 -0.03910828 C21.49412707 -0.04656313 25.70038944 -0.04628518 29.90673828 -0.04101562 C35.27756081 -0.03523171 40.64803727 -0.05212959 46.01880264 -0.0753603 C50.16599512 -0.09014867 54.31310534 -0.09096224 58.46031952 -0.08785057 C60.43931512 -0.08836154 62.4183156 -0.09355681 64.39728546 -0.10366249 C90.41999308 -0.22021317 90.41999308 -0.22021317 101.12402344 9.2746582 C107.84478396 17.1625737 110.42221181 24.06268276 110.43041992 34.30249023 C110.43874344 35.19117294 110.44706696 36.07985565 110.4556427 36.99546814 C110.47967522 39.92451404 110.4885081 42.85333674 110.49511719 45.7824707 C110.50409107 47.83023136 110.51321305 49.87799137 110.5224762 51.92575073 C110.53895216 56.21785064 110.54666335 60.50987269 110.54956055 64.80200195 C110.55493222 70.27594228 110.59256842 75.74914043 110.63830471 81.22287178 C110.66819622 85.45421959 110.67528678 89.68539162 110.6762867 93.91683578 C110.68046767 95.93328106 110.6928157 97.94972789 110.71380424 99.96606827 C110.83880616 113.01726945 110.58935858 125.62008337 101.06152344 135.7434082 C92.56217119 142.46063821 83.89754843 144.41700841 73.34570312 144.45166016 C72.47185471 144.45823135 71.59800629 144.46480255 70.69767761 144.47157288 C67.81375025 144.49123842 64.92987478 144.50295318 62.04589844 144.51293945 C61.05775398 144.51701498 60.06960953 144.52109051 59.0515213 144.52528954 C53.82162182 144.54612112 48.59174835 144.56043566 43.36181641 144.56982422 C37.97399948 144.580885 32.58659593 144.61528966 27.19892502 144.65499592 C23.04320533 144.68119861 18.88758366 144.68951929 14.73178864 144.6931057 C12.74636288 144.69796185 10.76094122 144.70954797 8.77559662 144.72814369 C5.99004232 144.75261394 3.20555179 144.75155584 0.41992188 144.74462891 C-0.79613487 144.76384399 -0.79613487 144.76384399 -2.03675842 144.78344727 C-11.07249219 144.7020517 -19.46901942 140.61417369 -25.87597656 134.2746582 C-31.74904721 126.27894783 -34.17717966 119.02144534 -34.16650391 109.19921875 C-34.17322113 108.30571716 -34.17993835 107.41221558 -34.18685913 106.49163818 C-34.20580195 103.54816064 -34.20976151 100.6049116 -34.21191406 97.66137695 C-34.21834477 95.60642911 -34.22507333 93.55148219 -34.23208618 91.49653625 C-34.2440498 87.19184243 -34.24776796 82.8872288 -34.24658203 78.58251953 C-34.24637894 73.08148329 -34.27367497 67.58096424 -34.30812645 62.08005047 C-34.3304248 57.83595951 -34.33441866 53.59199242 -34.33336258 49.34784889 C-34.33571434 47.32056713 -34.34451381 45.29328174 -34.36002731 43.26605797 C-34.37974578 40.4231032 -34.37382619 37.58125598 -34.36181641 34.73828125 C-34.37305542 33.91044632 -34.38429443 33.08261139 -34.39587402 32.22969055 C-34.29771667 23.03035519 -30.18717197 14.89235758 -23.87597656 8.2746582 C-16.35326234 2.18355566 -9.56857082 -0.0291351 0 0 Z " fill="#D8524E" transform="translate(337.8759765625,63.725341796875)"/>
</svg>
